<?xml version="1.0" encoding="utf-8"?>
<!-- Generator: Adobe Illustrator 21.0.2, SVG Export Plug-In . SVG Version: 6.00 Build 0)  -->
<svg version="1.1" id="Layer_1" xmlns="http://www.w3.org/2000/svg" xmlns:xlink="http://www.w3.org/1999/xlink" x="0px" y="0px"
	 viewBox="0 0 290.6 290.6" style="enable-background:new 0 0 290.6 290.6;" xml:space="preserve">
<style type="text/css">
	.st0{fill:none;}
	.st1{fill:#FFFFFF;}
</style>
<g>
	<g>
		<circle class="st0" cx="65.6" cy="79.7" r="23.4"/>
		<polygon class="st1" points="87.4,69.2 81.4,62 56.5,82.7 50.2,76.4 43.6,83 56,95.4 		"/>
		<rect x="103.1" y="65.6" class="st1" width="70.3" height="9.4"/>
		<rect x="103.1" y="84.4" class="st1" width="79.7" height="9.4"/>
		<polygon class="st1" points="87.4,116.1 81.4,108.9 56.5,129.6 50.2,123.2 43.6,129.9 56,142.3 		"/>
		<rect x="103.1" y="112.5" class="st1" width="98.4" height="9.4"/>
		<rect x="103.1" y="131.2" class="st1" width="18.8" height="9.4"/>
		<rect x="131.3" y="131.2" class="st1" width="70.3" height="9.4"/>
		<polygon class="st1" points="87.4,163 81.4,155.8 56.5,176.5 50.2,170.1 43.6,176.8 56,189.2 		"/>
		<rect x="103.1" y="159.4" class="st1" width="98.4" height="9.4"/>
		<rect x="103.1" y="178.1" class="st1" width="70.3" height="9.4"/>
		<rect x="182.8" y="178.1" class="st1" width="18.8" height="9.4"/>
		<rect x="182.8" y="65.6" class="st1" width="18.8" height="9.4"/>
		<path class="st1" d="M276.6,215.6h-9.4h-9.4h-9.4h-9.4V23.4c0-12.9-10.5-23.4-23.4-23.4H23.4C10.5,0,0,10.5,0,23.4
			s10.5,23.4,23.4,23.4v243.8h196.9v-28.1h18.8v-18.8h9.4h9.4h9.4h9.4c7.8,0,14.1-6.3,14.1-14.1S284.3,215.6,276.6,215.6z
			 M229.7,23.4v192.2h-9.4V37.5h-4.7c-7.8,0-14.1-6.3-14.1-14.1s6.3-14.1,14.1-14.1S229.7,15.7,229.7,23.4z M9.4,23.4
			c0-7.8,6.3-14.1,14.1-14.1H197c-3,3.9-4.8,8.8-4.8,14.1s1.8,10.1,4.8,14.1H23.4C15.7,37.5,9.4,31.2,9.4,23.4z M32.8,281.2V46.9
			h178.1v168.8h-132l-42.2,14.1l42.2,14.1h132v37.5L32.8,281.2L32.8,281.2z M66.4,229.7l8.6-2.9v5.7L66.4,229.7z M229.7,253.1h-9.4
			v-9.4h9.4V253.1z M239.1,234.4H84.4V225h154.7L239.1,234.4L239.1,234.4z M257.8,234.4h-9.4V225h9.4V234.4z M276.6,234.4h-9.4V225
			h9.4c2.6,0,4.7,2.1,4.7,4.7S279.2,234.4,276.6,234.4z"/>
	</g>
</g>
</svg>
