<?xml version="1.0" encoding="utf-8"?>
<!-- Generator: Adobe Illustrator 21.0.2, SVG Export Plug-In . SVG Version: 6.00 Build 0)  -->
<svg version="1.1" id="Layer_1" xmlns="http://www.w3.org/2000/svg" xmlns:xlink="http://www.w3.org/1999/xlink" x="0px" y="0px"
	 viewBox="0 0 496.2 496.2" style="enable-background:new 0 0 496.2 496.2;" xml:space="preserve">
<style type="text/css">
	.st0{fill:#99BD4B;}
	.st1{display:none;fill:#FFFFFF;}
	.st2{display:none;fill:#CFD1D1;}
	.st3{display:none;fill:#C7C9C9;stroke:#EDEDED;stroke-width:0.995;stroke-miterlimit:10;}
	.st4{display:none;fill:#E0E2E2;}
	.st5{display:none;fill:#48A1AF;}
	.st6{display:none;fill:#E3EBEE;}
	.st7{display:none;fill:#F7FBFC;}
	.st8{display:none;fill:#9CC9D3;}
	.st9{display:none;fill:#5CB6BF;}
	.st10{display:none;fill:#ABD6D6;}
	.st11{display:none;fill:#BFE2E1;}
	.st12{display:none;fill:#CAE2E8;}
	.st13{display:none;}
	.st14{display:inline;fill:#FFFFFF;}
	.st15{display:inline;fill:#EDAF6B;}
	.st16{display:none;fill:#90C7D3;}
	.st17{display:none;fill:#C6BD20;}
	.st18{display:none;fill:#D6D11E;}
	.st19{display:none;fill:#EAE134;}
	.st20{display:inline;fill:#CCCACA;}
	.st21{display:none;fill:#C1C1C1;}
	.st22{display:none;fill:#E0DEDE;}
	.st23{display:none;fill:#83B041;}
	.st24{display:inline;fill:#7D3719;}
	.st25{display:none;fill:#8BC53F;}
	.st26{display:none;fill:#CA2027;}
	.st27{display:inline;fill:#E92C25;}
	.st28{display:none;fill:#1D9E49;}
	.st29{display:none;fill:#D7C527;}
	.st30{display:inline;fill:#EDEDED;}
	.st31{display:none;fill:#F9ECE4;}
	.st32{display:none;fill:#F5D1AF;}
	.st33{display:none;fill:#952E25;}
	.st34{display:inline;fill:#F9ECE4;}
	.st35{display:none;fill:#EDEDED;}
	.st36{display:none;fill:#EB7623;}
	.st37{display:none;fill:#E48225;}
	.st38{display:none;fill:#F69220;}
	.st39{display:none;fill:#D4D6D6;}
	.st40{fill:#FFFFFF;}
	.st41{fill:#54C0EB;}
	.st42{fill:#FFD05B;}
	.st43{fill:#324A5E;}
	.st44{fill:#FF7058;}
	.st45{fill:#4CDBC4;}
	.st46{fill:#CED5E0;}
	.st47{fill:#84DBFF;}
	.st48{fill:#E6E9EE;}
</style>
<path class="st0" d="M489.2,248.1C489.2,115,381.2,7,248.1,7S7,115,7,248.1s108,241.1,241.1,241.1S489.2,381.2,489.2,248.1z"/>
<path class="st1" d="M283.7,404.1c0,7.7-6.3,14-14,14H140.3c-7.7,0-14-6.3-14-14v-329c0-7.7,6.3-14,14-14h129.3c7.7,0,14,6.3,14,14
	v329H283.7z"/>
<path class="st2" d="M390.9,421.1c0,7.7-6.3,14-14,14h-9.8c-5.3-2-73.7-25.2-73.7-31.2l86.9-228.7h9.7L390.9,421.1z"/>
<path class="st1" d="M381.1,421.1c0,7.7-6.3,14-14,14c0,0-72.8-17.5-74.3-18.1c-5.3-2-9.1-7.1-9.1-13.1V182l96.7-6.9L381.1,421.1z"
	/>
<polygon class="st3" points="372.6,417.4 305.1,402.1 305.1,205.4 372.6,201.4 "/>
<polygon class="st4" points="291.1,394.1 305.1,402.1 305.1,205.4 291.2,206.1 "/>
<path class="st5" d="M362.8,302.1c0,0.2-0.2,0.4-0.4,0.4h-5.3c-0.2,0-0.4-0.2-0.4-0.4v-0.5c0-0.2,0.2-0.4,0.4-0.4h5.4
	c0.2,0,0.4,0.2,0.4,0.4v0.5H362.8z"/>
<path class="st6" d="M365.9,312.1c0-4.3-3.3-7.8-3.3-7.8c-0.3-0.6-0.2-4.4-0.2-4.4h-5.3c0,0,0.1,3.9-0.2,4.4c0,0-3.3,3.5-3.3,7.8
	c0,0,0,0.8,0.2,1.9c0.1,0.7,0.5,1.6,0.5,2.5s-0.5,1.9-0.5,2.8c0,1.6,0,2.9,0,3.5c0,1.7,0.6,6.5,0.6,7.6s-0.6,2.2-0.6,3.5
	s0,5.9,0,5.9s0.3,2.7,5.9,2.7l0,0l0,0l0,0l0,0c5.7,0,5.9-2.7,5.9-2.7s0-4.5,0-5.9s-0.6-2.4-0.6-3.5s0.6-5.9,0.6-7.6
	c0-0.6,0-1.9,0-3.5c0-0.9-0.5-1.8-0.5-2.8c0-0.9,0.4-1.8,0.5-2.5C365.9,312.9,365.9,312.1,365.9,312.1z"/>
<path class="st7" d="M359.8,299.9h-2.6c0,0,0.1,3.9-0.2,4.4c0,0-3.3,3.5-3.3,7.8c0,0,0,0.8,0.2,1.9c0.1,0.7,0.5,1.6,0.5,2.5
	s-0.5,1.9-0.5,2.8v3.5c0,1.7,0.6,6.5,0.6,7.6s-0.6,2.2-0.6,3.5s0,5.9,0,5.9s0.3,2.7,5.9,2.7l0,0V299.9z"/>
<path class="st8" d="M353.7,312.8c0,0.3,0.1,0.7,0.1,1.2c0.1,0.7,0.5,1.6,0.5,2.5s-0.5,1.9-0.5,2.8c0,1.6,0,2.9,0,3.5
	c0,1.7,0.6,6.5,0.6,7.6s-0.6,2.2-0.6,3.5s0,5.9,0,5.9s2.2-1.6,5.9-1.6c3.7,0,5.9,1.6,5.9,1.6s0-4.5,0-5.9s-0.6-2.4-0.6-3.5
	s0.6-5.9,0.6-7.6c0-0.6,0-1.9,0-3.5c0-0.9-0.5-1.8-0.5-2.8c0-0.9,0.4-1.8,0.5-2.5c0.1-0.5,0.1-0.9,0.2-1.2c0,0-3.1-0.3-6.2-0.3
	C356.7,312.5,353.7,312.8,353.7,312.8z"/>
<path class="st5" d="M363.1,302.9c0,0.2-0.2,0.4-0.4,0.4h-5.8c-0.2,0-0.4-0.2-0.4-0.4v-0.5c0-0.2,0.2-0.4,0.4-0.4h5.8
	c0.2,0,0.4,0.2,0.4,0.4V302.9z"/>
<path class="st9" d="M359.8,303.2h-2.9c-0.2,0-0.4-0.2-0.4-0.4v-0.5c0-0.2,0.2-0.4,0.4-0.4h2.9V303.2z"/>
<path class="st10" d="M362.7,304.3c0-0.1-0.1-0.2-0.1-0.4h-5.5c0,0.2-0.1,0.3-0.1,0.4l0,0H362.7z"/>
<path class="st11" d="M359.8,303.9H357c0,0.2-0.1,0.3-0.1,0.4l0,0h2.9V303.9z"/>
<path class="st5" d="M363.2,303.1c0,0.1,0,0.1-0.1,0.1h-6.7c-0.1,0-0.1,0-0.1-0.1v-0.2c0-0.1,0-0.1,0.1-0.1h6.7c0.1,0,0.1,0,0.1,0.1
	V303.1z"/>
<path class="st9" d="M359.8,302.9h-3.3c-0.1,0-0.1,0-0.1,0.1v0.2c0,0.1,0,0.1,0.1,0.1h3.3V302.9z"/>
<path class="st5" d="M362,299.3h-4.4c-1.2,0-1.1,0.9-1.1,0.9s0,1.2,0,1.4c0,0.1,0,0.2,0.2,0.2s6,0,6.1,0c0.2,0,0.2-0.1,0.2-0.2
	s0-1.4,0-1.4S363.2,299.3,362,299.3z"/>
<path class="st9" d="M359.8,299.3h-2.2c-1.2,0-1.1,0.9-1.1,0.9s0,1.2,0,1.4c0,0.1,0,0.2,0.2,0.2c0.1,0,1.6,0,3.1,0V299.3z"/>
<path class="st12" d="M359.8,312.5c-3,0-6.1,0.4-6.1,0.4c0,0.3,0.1,0.7,0.1,1.2c0.1,0.7,0.5,1.6,0.5,2.5s-0.5,1.9-0.5,2.8v3.5
	c0,1.7,0.6,6.5,0.6,7.6s-0.6,2.2-0.6,3.5s0,5.9,0,5.9s0.3,2.7,5.9,2.7L359.8,312.5z"/>
<path class="st5" d="M328.9,299.2c0,0.2-0.2,0.4-0.4,0.4h-5.4c-0.2,0-0.4-0.2-0.4-0.4v-0.5c0-0.2,0.2-0.4,0.4-0.4h5.4
	c0.2,0,0.4,0.2,0.4,0.4V299.2z"/>
<path class="st6" d="M332,309.2c0-4.3-3.3-7.8-3.3-7.8c-0.3-0.6-0.2-4.4-0.2-4.4h-5.3c0,0,0.1,3.9-0.2,4.4c0,0-3.3,3.5-3.3,7.8
	c0,0,0,0.8,0.2,1.9c0.1,0.7,0.5,1.6,0.5,2.5s-0.5,1.9-0.5,2.8c0,1.6,0,2.9,0,3.5c0,1.7,0.6,6.5,0.6,7.6s-0.6,2.2-0.6,3.5
	s0,5.9,0,5.9s0.3,2.7,5.9,2.7l0,0l0,0l0,0l0,0c5.7,0,5.9-2.7,5.9-2.7s0-4.5,0-5.9s-0.6-2.4-0.6-3.5s0.6-5.9,0.6-7.6
	c0-0.6,0-1.9,0-3.5c0-0.9-0.5-1.8-0.5-2.8c0-0.9,0.4-1.8,0.5-2.5C332,309.9,332,309.2,332,309.2z"/>
<path class="st8" d="M332,309.2c0-2-0.7-3.9-1.5-5.3h-9.3c-0.8,1.4-1.5,3.2-1.5,5.3c0,0,0,0.8,0.2,1.9c0.1,0.7,0.5,1.6,0.5,2.5
	s-0.5,1.9-0.5,2.8c0,1.6,0,2.9,0,3.5c0,1.7,0.6,6.5,0.6,7.6s-0.6,2.2-0.6,3.5s0,5.9,0,5.9s0.3,2.7,5.9,2.7l0,0l0,0l0,0l0,0
	c5.7,0,5.9-2.7,5.9-2.7s0-4.5,0-5.9s-0.6-2.4-0.6-3.5s0.6-5.9,0.6-7.6c0-0.6,0-1.9,0-3.5c0-0.9-0.5-1.8-0.5-2.8
	c0-0.9,0.4-1.8,0.5-2.5C332,309.9,332,309.2,332,309.2z"/>
<path class="st7" d="M325.8,296.9h-2.6c0,0,0.1,3.9-0.2,4.4c0,0-3.3,3.5-3.3,7.8c0,0,0,0.8,0.2,1.9c0.1,0.7,0.5,1.6,0.5,2.5
	s-0.5,1.9-0.5,2.8v3.5c0,1.7,0.6,6.5,0.6,7.6s-0.6,2.2-0.6,3.5s0,5.9,0,5.9s0.3,2.7,5.9,2.7l0,0V296.9z"/>
<path class="st5" d="M329.1,299.9c0,0.2-0.2,0.4-0.4,0.4h-5.8c-0.2,0-0.4-0.2-0.4-0.4v-0.5c0-0.2,0.2-0.4,0.4-0.4h5.8
	c0.2,0,0.4,0.2,0.4,0.4V299.9z"/>
<path class="st9" d="M325.8,300.3h-2.9c-0.2,0-0.4-0.2-0.4-0.4v-0.5c0-0.2,0.2-0.4,0.4-0.4h2.9V300.3z"/>
<path class="st10" d="M328.7,301.4c0-0.1-0.1-0.2-0.1-0.4h-5.5c0,0.2-0.1,0.3-0.1,0.4l0,0H328.7z"/>
<path class="st11" d="M325.8,300.9h-2.7c0,0.2-0.1,0.3-0.1,0.4l0,0h2.9L325.8,300.9L325.8,300.9z"/>
<path class="st5" d="M329.3,300.2c0,0.1,0,0.1-0.1,0.1h-6.7c-0.1,0-0.1,0-0.1-0.1V300c0-0.1,0-0.1,0.1-0.1h6.7c0.1,0,0.1,0,0.1,0.1
	V300.2z"/>
<path class="st9" d="M325.8,299.9h-3.3c-0.1,0-0.1,0-0.1,0.1v0.2c0,0.1,0,0.1,0.1,0.1h3.3V299.9z"/>
<path class="st5" d="M328,296.3h-4.4c-1.2,0-1.1,0.9-1.1,0.9s0,1.2,0,1.4c0,0.1,0,0.2,0.2,0.2s6,0,6.1,0c0.2,0,0.2-0.1,0.2-0.2
	s0-1.4,0-1.4S329.2,296.3,328,296.3z"/>
<path class="st9" d="M325.8,296.3h-2.2c-1.2,0-1.1,0.9-1.1,0.9s0,1.2,0,1.4c0,0.1,0,0.2,0.2,0.2c0.1,0,1.6,0,3.1,0V296.3z"/>
<path class="st12" d="M321.2,303.9c-0.8,1.4-1.5,3.2-1.5,5.3c0,0,0,0.8,0.2,1.9c0.1,0.7,0.5,1.6,0.5,2.5s-0.5,1.9-0.5,2.8v3.5
	c0,1.7,0.6,6.5,0.6,7.6s-0.6,2.2-0.6,3.5s0,5.9,0,5.9s0.3,2.7,5.9,2.7l0,0V304L321.2,303.9z"/>
<path class="st5" d="M312.8,298.6c0,0.2-0.2,0.4-0.4,0.4h-5.3c-0.2,0-0.4-0.2-0.4-0.4v-0.5c0-0.2,0.2-0.4,0.4-0.4h5.4
	c0.2,0,0.4,0.2,0.4,0.4v0.5H312.8z"/>
<path class="st6" d="M315.9,308.6c0-4.3-3.3-7.8-3.3-7.8c-0.3-0.6-0.2-4.4-0.2-4.4h-5.3c0,0,0.1,3.9-0.2,4.4c0,0-3.3,3.5-3.3,7.8
	c0,0,0,0.8,0.2,1.9c0.1,0.7,0.5,1.6,0.5,2.5s-0.5,1.9-0.5,2.8c0,1.6,0,2.9,0,3.5c0,1.7,0.6,6.5,0.6,7.6s-0.6,2.2-0.6,3.5
	s0,5.9,0,5.9s0.3,2.7,5.9,2.7l0,0l0,0l0,0l0,0c5.7,0,5.9-2.7,5.9-2.7s0-4.5,0-5.9s-0.6-2.4-0.6-3.5s0.6-5.9,0.6-7.6
	c0-0.6,0-1.9,0-3.5c0-0.9-0.5-1.8-0.5-2.8c0-0.9,0.4-1.8,0.5-2.5C315.9,309.4,315.9,308.6,315.9,308.6z"/>
<path class="st8" d="M315.9,308.6c0-2-0.7-3.9-1.5-5.3h-9.3c-0.8,1.4-1.5,3.2-1.5,5.3c0,0,0,0.8,0.2,1.9c0.1,0.7,0.5,1.6,0.5,2.5
	s-0.5,1.9-0.5,2.8c0,1.6,0,2.9,0,3.5c0,1.7,0.6,6.5,0.6,7.6s-0.6,2.2-0.6,3.5s0,5.9,0,5.9s0.3,2.7,5.9,2.7l0,0l0,0l0,0l0,0
	c5.7,0,5.9-2.7,5.9-2.7s0-4.5,0-5.9s-0.6-2.4-0.6-3.5s0.6-5.9,0.6-7.6c0-0.6,0-1.9,0-3.5c0-0.9-0.5-1.8-0.5-2.8
	c0-0.9,0.4-1.8,0.5-2.5C315.9,309.4,315.9,308.6,315.9,308.6z"/>
<path class="st7" d="M309.8,296.4h-2.7c0,0,0.1,3.9-0.2,4.4c0,0-3.3,3.5-3.3,7.8c0,0,0,0.8,0.2,1.9c0.1,0.7,0.5,1.6,0.5,2.5
	s-0.5,1.9-0.5,2.8v3.5c0,1.7,0.6,6.5,0.6,7.6s-0.6,2.2-0.6,3.5s0,5.9,0,5.9s0.3,2.7,5.9,2.7l0,0v-42.6L309.8,296.4L309.8,296.4z"/>
<path class="st5" d="M313,299.3c0,0.2-0.2,0.4-0.4,0.4h-5.8c-0.2,0-0.4-0.2-0.4-0.4v-0.5c0-0.2,0.2-0.4,0.4-0.4h5.8
	c0.2,0,0.4,0.2,0.4,0.4V299.3z"/>
<path class="st9" d="M309.7,299.7h-2.9c-0.2,0-0.4-0.2-0.4-0.4v-0.5c0-0.2,0.2-0.4,0.4-0.4h2.9V299.7z"/>
<path class="st10" d="M312.6,300.8c0-0.1-0.1-0.2-0.1-0.4H307c0,0.2-0.1,0.3-0.1,0.4l0,0H312.6z"/>
<path class="st11" d="M309.8,300.4H307c0,0.2-0.1,0.3-0.1,0.4l0,0h2.9V300.4z"/>
<path class="st5" d="M313.2,299.6c0,0.1,0,0.1-0.1,0.1h-6.7c-0.1,0-0.1,0-0.1-0.1v-0.2c0-0.1,0-0.1,0.1-0.1h6.7c0.1,0,0.1,0,0.1,0.1
	V299.6z"/>
<path class="st9" d="M309.7,299.3h-3.3c-0.1,0-0.1,0-0.1,0.1v0.2c0,0.1,0,0.1,0.1,0.1h3.3V299.3z"/>
<path class="st5" d="M311.9,295.7h-4.4c-1.2,0-1.1,0.9-1.1,0.9s0,1.2,0,1.4c0,0.1,0,0.2,0.2,0.2s6,0,6.1,0c0.2,0,0.2-0.1,0.2-0.2
	s0-1.4,0-1.4S313.1,295.7,311.9,295.7z"/>
<path class="st9" d="M309.7,295.7h-2.2c-1.2,0-1.1,0.9-1.1,0.9s0,1.2,0,1.4c0,0.1,0,0.2,0.2,0.2c0.1,0,1.6,0,3.1,0V295.7z"/>
<path class="st12" d="M305.1,303.3c-0.8,1.4-1.5,3.2-1.5,5.3c0,0,0,0.8,0.2,1.9c0.1,0.7,0.5,1.6,0.5,2.5s-0.5,1.9-0.5,2.8v3.5
	c0,1.7,0.6,6.5,0.6,7.6s-0.6,2.2-0.6,3.5s0,5.9,0,5.9s0.3,2.7,5.9,2.7l0,0v-35.6L305.1,303.3z"/>
<g class="st13">
	<polygon class="st14" points="373.8,351.9 291.1,345.3 291.1,323.9 373.1,327.3 	"/>
	<polygon class="st14" points="374.8,285.2 291.1,284.1 291.1,266.1 374.2,265.8 	"/>
</g>
<g class="st13">
	<path class="st15" d="M322.3,222.7c0.6,4.5-1.9,7.7-5.6,8.2s-7-1.8-7.6-6.4c-0.6-4.5,1.6-10.1,5.3-10.6S321.7,218.2,322.3,222.7z"
		/>
	<path class="st15" d="M339.6,224.3c-0.4,4.6-3.7,7-7.4,6.7c-3.7-0.4-6.4-3.4-5.9-8c0.4-4.6,3.9-9.4,7.6-9.1
		C337.6,214.3,340,219.8,339.6,224.3z"/>
	<path class="st15" d="M356.6,221.4c1.1,4.4-1.2,7.9-4.7,8.7c-3.6,0.9-7.2-1.1-8.2-5.6c-1.1-4.4,0.6-10.2,4.2-11
		C351.3,212.7,355.5,217,356.6,221.4z"/>
</g>
<polygon class="st1" points="373.8,244.1 291.1,245.4 291.1,227.1 373.1,224.1 "/>
<path class="st5" d="M361.6,357.7c0,0.2-0.2,0.4-0.4,0.4h-5.5c-0.2,0-0.4-0.2-0.4-0.4v-0.5c0-0.2,0.2-0.4,0.4-0.4h5.5
	c0.2,0,0.4,0.2,0.4,0.4V357.7z"/>
<path class="st6" d="M367.7,375.5c0-9.6-6.2-15.6-6.2-15.6c-0.3-0.6-0.2-4.5-0.2-4.5h-5.4c0,0,0.1,4-0.2,4.5c0,0-6.2,6.2-6.2,15.6
	s1.1,10.6,1.1,15.1c0,1.7-1.2,3.6-1.2,9.4c0,2.1,0,17,0,17s0.8,4.2,9.2,4.2l0,0l0,0l0,0l0,0c8.4,0,9.2-4.2,9.2-4.2s0-14.9,0-17
	c0-5.6-1.2-7.7-1.2-9.4C366.5,386,367.7,385.1,367.7,375.5z"/>
<path class="st7" d="M358.5,355.4h-2.7c0,0,0.1,4-0.2,4.5c0,0-6.2,6.2-6.2,15.6s1.1,10.6,1.1,15.1c0,1.7-1.2,3.6-1.2,9.4
	c0,2.1,0,17,0,17s0.8,4.2,9.2,4.2l0,0l0,0l0,0l0,0L358.5,355.4z"/>
<path class="st5" d="M361.9,358.4c0,0.2-0.2,0.4-0.4,0.4h-5.9c-0.2,0-0.4-0.2-0.4-0.4v-0.5c0-0.2,0.2-0.4,0.4-0.4h5.9
	c0.2,0,0.4,0.2,0.4,0.4V358.4z"/>
<path class="st9" d="M358.5,358.8h-2.9c-0.2,0-0.4-0.2-0.4-0.4v-0.5c0-0.2,0.2-0.4,0.4-0.4h2.9V358.8z"/>
<path class="st10" d="M361.4,359.9c0-0.1-0.1-0.2-0.1-0.4h-5.6c0,0.2-0.1,0.3-0.1,0.4l0,0H361.4z"/>
<path class="st11" d="M358.5,359.5h-2.8c0,0.2-0.1,0.3-0.1,0.4l0,0h2.9V359.5z"/>
<path class="st5" d="M362,358.7c0,0.1-0.1,0.1-0.1,0.1h-6.8c-0.1,0-0.1-0.1-0.1-0.1v-0.2c0-0.1,0.1-0.1,0.1-0.1h6.8
	c0.1,0,0.1,0.1,0.1,0.1V358.7z"/>
<path class="st9" d="M358.5,358.4h-3.4c-0.1,0-0.1,0.1-0.1,0.1v0.2c0,0.1,0.1,0.1,0.1,0.1h3.4V358.4z"/>
<path class="st5" d="M360.8,354.7h-4.5c-1.2,0-1.1,0.9-1.1,0.9s0,1.3,0,1.4s0,0.2,0.2,0.2c0.1,0,6.1,0,6.3,0s0.2-0.1,0.2-0.2
	s0-1.4,0-1.4S362,354.7,360.8,354.7z"/>
<path class="st9" d="M358.5,354.7h-2.2c-1.2,0-1.1,0.9-1.1,0.9s0,1.3,0,1.4s0,0.2,0.2,0.2c0.1,0,1.6,0,3.1,0V354.7z"/>
<path class="st16" d="M367.7,375.5c0-5.8-2.3-10.4-4.1-13h-10c-1.8,2.7-4.2,7.2-4.2,13.1c0,9.5,1.1,10.6,1.1,15.1
	c0,1.7-1.2,3.6-1.2,9.4c0,2.1,0,17,0,17s0.8,4.2,9.2,4.2l0,0l0,0l0,0l0,0c8.4,0,9.2-4.2,9.2-4.2s0-14.9,0-17c0-5.6-1.2-7.7-1.2-9.4
	C366.5,386,367.7,385.1,367.7,375.5z"/>
<path class="st5" d="M367.7,375.5c0-5.8-2.3-10.4-4.1-13h-10c-1.8,2.7-4.2,7.2-4.2,13.1c0,9.5,1.1,10.6,1.1,15.1
	c0,1.7-1.2,3.6-1.2,9.4c0,2.1,0,17,0,17s4.5-1.9,9.2-1.9s9.2,1.9,9.2,1.9s0-14.9,0-17c0-5.6-1.2-7.7-1.2-9.4
	C366.5,386,367.7,385.1,367.7,375.5z"/>
<path class="st9" d="M358.5,362.5h-5c-1.8,2.7-4.2,7.2-4.2,13.1c0,9.5,1.1,10.6,1.1,15.1c0,1.7-1.2,3.6-1.2,9.4c0,2.1,0,17,0,17
	s0.8,4.2,9.2,4.2l0,0l0,0l0,0l0,0L358.5,362.5z"/>
<path class="st17" d="M335,355.3c0,0.2-0.2,0.4-0.4,0.4h-5.5c-0.2,0-0.4-0.2-0.4-0.4v-0.5c0-0.2,0.2-0.4,0.4-0.4h5.5
	c0.2,0,0.4,0.2,0.4,0.4V355.3z"/>
<path class="st6" d="M341,373.2c0-9.6-6.2-15.6-6.2-15.6c-0.3-0.6-0.2-4.5-0.2-4.5h-5.4c0,0,0.1,4-0.2,4.5c0,0-6.2,6.2-6.2,15.6
	s1.1,10.6,1.1,15.1c0,1.7-1.2,3.6-1.2,9.4c0,2.1,0,17,0,17s0.8,4.2,9.2,4.2l0,0l0,0l0,0l0,0c8.4,0,9.2-4.2,9.2-4.2s0-14.9,0-17
	c0-5.6-1.2-7.7-1.2-9.4C339.9,383.7,341,382.8,341,373.2z"/>
<path class="st7" d="M331.8,353h-2.7c0,0,0.1,4-0.2,4.5c0,0-6.2,6.2-6.2,15.6s1.1,10.6,1.1,15.1c0,1.7-1.2,3.6-1.2,9.4
	c0,2.1,0,17,0,17s0.8,4.2,9.2,4.2l0,0l0,0l0,0l0,0L331.8,353z"/>
<path class="st18" d="M335.2,356.1c0,0.2-0.2,0.4-0.4,0.4h-5.9c-0.2,0-0.4-0.2-0.4-0.4v-0.5c0-0.2,0.2-0.4,0.4-0.4h5.9
	c0.2,0,0.4,0.2,0.4,0.4V356.1z"/>
<path class="st19" d="M331.8,356.5h-2.9c-0.2,0-0.4-0.2-0.4-0.4v-0.5c0-0.2,0.2-0.4,0.4-0.4h2.9V356.5z"/>
<path class="st10" d="M334.8,357.6c0-0.1-0.1-0.2-0.1-0.4h-5.6c0,0.2-0.1,0.3-0.1,0.4l0,0H334.8z"/>
<path class="st11" d="M331.8,357.1H329c0,0.2-0.1,0.3-0.1,0.4l0,0h2.9V357.1z"/>
<path class="st18" d="M335.4,356.3c0,0.1-0.1,0.1-0.1,0.1h-6.8c-0.1,0-0.1-0.1-0.1-0.1v-0.2c0-0.1,0.1-0.1,0.1-0.1h6.8
	c0.1,0,0.1,0.1,0.1,0.1V356.3z"/>
<path class="st19" d="M331.8,356.1h-3.4c-0.1,0-0.1,0.1-0.1,0.1v0.2c0,0.1,0.1,0.1,0.1,0.1h3.4V356.1z"/>
<path class="st18" d="M334.1,352.4h-4.5c-1.2,0-1.1,0.9-1.1,0.9s0,1.3,0,1.4s0,0.2,0.2,0.2c0.1,0,6.1,0,6.3,0s0.2-0.1,0.2-0.2
	s0-1.4,0-1.4S335.3,352.4,334.1,352.4z"/>
<path class="st19" d="M331.8,352.4h-2.2c-1.2,0-1.1,0.9-1.1,0.9s0,1.3,0,1.4s0,0.2,0.2,0.2c0.1,0,1.6,0,3.1,0V352.4z"/>
<path class="st16" d="M341,373.2c0-5.8-2.3-10.4-4.1-13h-10c-1.8,2.7-4.2,7.2-4.2,13.1c0,9.5,1.1,10.6,1.1,15.1
	c0,1.7-1.2,3.6-1.2,9.4c0,2.1,0,17,0,17s0.8,4.2,9.2,4.2l0,0l0,0l0,0l0,0c8.4,0,9.2-4.2,9.2-4.2s0-14.9,0-17c0-5.6-1.2-7.7-1.2-9.4
	C339.9,383.7,341,382.8,341,373.2z"/>
<path class="st18" d="M341,373.2c0-5.8-2.3-10.4-4.1-13h-10c-1.8,2.7-4.2,7.2-4.2,13.1c0,9.5,1.1,10.6,1.1,15.1
	c0,1.7-1.2,3.6-1.2,9.4c0,2.1,0,17,0,17s4.5-1.9,9.2-1.9s9.2,1.9,9.2,1.9s0-14.9,0-17c0-5.6-1.2-7.7-1.2-9.4
	C339.9,383.7,341,382.8,341,373.2z"/>
<path class="st19" d="M331.8,360.2h-5c-1.8,2.7-4.2,7.2-4.2,13.1c0,9.5,1.1,10.6,1.1,15.1c0,1.7-1.2,3.6-1.2,9.4c0,2.1,0,17,0,17
	s0.8,4.2,9.2,4.2l0,0l0,0l0,0l0,0L331.8,360.2z"/>
<polygon class="st1" points="373.2,428.6 291.1,411 291.1,387.3 373.1,399.3 "/>
<path class="st2" d="M273.6,400.4H136.4V209.3c0-6.8,5.5-12.2,12.2-12.2h112.8c6.8,0,12.2,5.5,12.2,12.2V400.4z"/>
<g class="st13">
	<rect x="126.3" y="177.5" class="st20" width="157.4" height="4.5"/>
	<rect x="283.3" y="182" class="st20" width="0.7" height="222.8"/>
</g>
<path class="st21" d="M150.5,140c0,16.8-2.4,23.4-5.3,23.4c-2.9,0-5.3-6.6-5.3-23.4s2.4-23.4,5.3-23.4
	C148.1,116.7,150.5,123.2,150.5,140z"/>
<path class="st22" d="M145.2,163.4c-2.9,0-5.3-6.6-5.3-23.4s2.4-23.4,5.3-23.4C148.1,116.7,148.1,163.4,145.2,163.4z"/>
<path class="st23" d="M248,212.4c-1.4,0.9-2.5,2.4-3.1,4.2c-1.8-0.2-3.6,0.1-5,1c-3.8,2.4-5.4,8.6-0.2,13.3
	c4.7,4.3,9.1,6.3,12.9,3.9c1.1-0.7,2.3-1.7,2.5-2.3c0.7,0,2-0.6,3-1.3c3.8-2.4,3.9-7.3,2-13.3C258.1,211.2,251.8,210,248,212.4z"/>
<g class="st13">
	<path class="st24" d="M245.6,218.2c0,0-1.2-2.8-2.9-4.1s1-0.4,1-0.4l2.2,4.3L245.6,218.2z"/>
	<polygon class="st24" points="254.3,232.2 254.6,233.1 254.9,232.5 255.5,232.7 255.4,232.2 256,232 254.9,231.5 	"/>
</g>
<path class="st25" d="M248.1,213.2c-1.4,0.9-2.3,2.3-2.9,3.9c-1.7-0.2-3.3,0.1-4.6,1c-3.6,2.3-5,8-0.2,12.4c4.3,4,8.5,5.9,12,3.6
	c1-0.6,2.1-1.6,2.3-2.1c0.7,0,1.9-0.6,2.8-1.2c3.6-2.3,3.6-6.8,1.8-12.4C257.5,212.1,251.7,211,248.1,213.2z"/>
<path class="st1" d="M249.8,216.3c0,0,3.1-0.6,5.4,1.3C255.2,217.6,253.5,212.6,249.8,216.3z"/>
<path class="st26" d="M211.5,216.3c-1.6-0.5-3.4-0.3-5.1,0.4c-1-1.5-2.4-2.6-4-3c-4.3-1.3-9.9,1.6-10.1,8.6
	c-0.2,6.3,1.3,10.9,5.6,12.2c1.2,0.4,2.8,0.6,3.4,0.4c0.5,0.5,1.8,1.1,3,1.4c4.3,1.3,8-1.8,11.2-7.3
	C219,223,215.9,217.6,211.5,216.3z"/>
<g class="st13">
	<path class="st24" d="M205.6,218.3c0,0,1.3-2.7,1.2-4.8s0.9,0.5,0.9,0.5l-1.8,4.5L205.6,218.3z"/>
	<polygon class="st24" points="200.9,233.9 200.4,234.7 201.1,234.6 201.3,235.1 201.7,234.8 202.1,235.1 201.8,233.9 	"/>
</g>
<g class="st13">
	<path id="SVGID_1_" class="st27" d="M211,216.9c-1.5-0.4-3.2-0.3-4.8,0.4c-1-1.4-2.3-2.4-3.8-2.8c-4-1.2-9.2,1.5-9.4,8
		c-0.2,5.9,1.2,10.1,5.2,11.3c1.1,0.3,2.6,0.5,3.1,0.3c0.4,0.5,1.7,1,2.8,1.3c4,1.2,7.4-1.7,10.5-6.7C218,223.1,215,218.1,211,216.9
		z"/>
</g>
<path class="st1" d="M210.7,219.9c0,0,2.2,1.6,2.2,4.2C212.9,224.1,215.2,220.2,210.7,219.9z"/>
<path class="st28" d="M203.1,212.3c-0.1,0.6,0.8,1.7,2.1,1.8c1.3,0.2,2.4-0.2,2.5-0.8C207.9,211.7,203.1,212.3,203.1,212.3z"/>
<g class="st13">
	<path class="st24" d="M167.2,218.5c0,0,2.7-1.7,3.7-3.7c1-1.9,0.5,0.9,0.5,0.9l-4.1,3L167.2,218.5z"/>
	<polygon class="st24" points="154.2,229.9 153.3,230.3 154,230.6 153.9,231.2 154.4,231.1 154.7,231.6 155.1,230.4 	"/>
</g>
<path class="st29" d="M172.9,220.3c-1.1-1.3-2.7-2-4.5-2.3c-0.1-1.8-0.7-3.4-1.8-4.7c-3-3.3-9.1-3.8-12.9,1.9
	c-3.4,5.2-4.6,9.8-1.7,13.1c0.8,0.9,2,1.9,2.6,2.1c0.1,0.7,0.9,1.8,1.7,2.7c3,3.3,7.6,2.6,13.2-0.2
	C175.6,229.8,175.8,223.6,172.9,220.3z"/>
<path class="st1" d="M170.2,222.1c0,0,1.1,3.4-1,6.7C169.2,228.7,175.1,225.4,170.2,222.1z"/>
<g class="st13">
	<rect x="143.9" y="233.5" class="st30" width="121" height="5"/>
	<rect x="143.9" y="267.3" class="st30" width="121" height="5"/>
</g>
<path class="st31" d="M188.4,295.5c-0.2,5.1-10.3,9-19.5,9c-9.8,0-19.1-5.7-17.5-11.1c0.1-0.4-0.9-5.1,0.1-5.5
	c2.9-1.2,9.4,3.6,17.2,3.6c8.4,0,15.7-6.8,19.2-4.5C188.7,287.6,188.4,294.8,188.4,295.5z"/>
<path class="st32" d="M187.9,287c3.1,5.8-8.5,11.9-18.9,11.9s-20.4-7.4-17.1-13c4.1-7,6.4-0.8,16.9-0.8S184.3,280.3,187.9,287z"/>
<path class="st33" d="M187.1,287.2c2.9,5.6-8.1,11.4-18.1,11.4s-19.6-7.1-16.4-12.5c3.9-6.7,6.2-0.7,16.2-0.7
	S183.7,280.7,187.1,287.2z"/>
<g class="st13">
	<path class="st34" d="M162.4,284.4c0,0,2.3,1.1,1.1,3.3c0,0,1.9-1.1,2.6-2.6L162.4,284.4z"/>
	<path class="st34" d="M177.3,288.4c0,0.7-1,1.2-2.2,1.2s-2.2-0.6-2.2-1.2c0-0.7,1.4-0.8,2.6-0.8S177.3,287.7,177.3,288.4z"/>
</g>
<rect x="143.9" y="301.1" class="st35" width="121" height="5"/>
<path class="st1" d="M249.9,326.5c0,0,8.1-3.1,7.7-0.8c0,0-0.1,2.3,0.3,3.9c0,0,0.7,2.5-2,2c0,0-5.9-1.7-7.3-1.5L249.9,326.5z"/>
<path class="st36" d="M249.6,331.4c-1.8,0-3.2-0.9-3.2-2.1V327c0-1.2,1.4-2.1,3.2-2.1l0,0c1.8,0,3.2,0.9,3.2,2.1v2.3
	C252.8,330.5,251.3,331.4,249.6,331.4L249.6,331.4z"/>
<path class="st37" d="M240.1,322.7c0,0-3.4-3.7-5-4.8c0,0-11-6.6-18-5.2c0,0-13.7,4.8-14.2,11c0,0-7.4,15.4,26.3,13.1
	c4.7-0.3,9.5-2.9,11.2-3.5c0,0,5-0.8,6.6-1c0,0,5-0.9,4.1-6.3C251,326.2,251.2,323.2,240.1,322.7z"/>
<path class="st38" d="M240.3,323.7c7.8,0.3,10,1.9,10.7,2.8c0-0.1,0-0.2,0-0.3c0,0,0.1-3-10.9-3.4c0,0-3.4-3.7-5-4.8
	c0,0-11-6.6-18-5.2c0,0-13.7,4.8-14.2,11c0,0,0.2,0,0.4,0.1C205.3,318.2,240.3,323.7,240.3,323.7z"/>
<g class="st13">
	<rect x="143.9" y="334.9" class="st30" width="121" height="5"/>
	<rect x="143.4" y="350" class="st30" width="58" height="44.9"/>
</g>
<rect x="143.4" y="356.1" class="st39" width="58" height="3"/>
<rect x="207.4" y="350" class="st35" width="58" height="44.9"/>
<rect x="207.4" y="356.1" class="st39" width="58" height="3"/>
<g>
	<path class="st40" d="M360.2,409.3H122.5c-1,0-1.8-0.8-1.8-1.8v-310c0-1,0.8-1.8,1.8-1.8h237.7c1,0,1.8,0.8,1.8,1.8v310
		C362,408.5,361.2,409.3,360.2,409.3z"/>
	
		<rect x="256.6" y="243.4" transform="matrix(0.7071 -0.7071 0.7071 0.7071 -94.8861 316.9127)" class="st41" width="157.1" height="59.1"/>
	<g>
		<polygon class="st42" points="258.8,307.7 243.1,365 300.3,349.3 		"/>
	</g>
	<polygon class="st43" points="249.4,341.8 243.1,365 266.2,358.6 	"/>
	<path class="st44" d="M392.9,176.6l38.6,38.6c0.9,0.9,0.9,2.3,0,3.2l-20,20l-41.8-41.8l20-20C390.6,175.7,392,175.7,392.9,176.6z"
		/>
	<rect x="148.2" y="132" class="st40" width="30.5" height="30.5"/>
	<path class="st45" d="M178.7,165.5h-30.5c-1.6,0-2.9-1.3-2.9-2.9v-30.5c0-1.6,1.3-2.9,2.9-2.9h30.5c1.6,0,2.9,1.3,2.9,2.9v30.4
		C181.6,164.1,180.3,165.5,178.7,165.5z M151.1,159.6h24.7v-24.7h-24.7V159.6z"/>
	<polygon class="st46" points="164.5,157 155.1,147.7 158.9,143.9 164.5,149.5 186.9,127.1 190.6,130.9 	"/>
	<rect x="148.2" y="188.6" class="st40" width="30.5" height="30.5"/>
	<path class="st47" d="M178.7,222h-30.5c-1.6,0-2.9-1.3-2.9-2.9v-30.5c0-1.6,1.3-2.9,2.9-2.9h30.5c1.6,0,2.9,1.3,2.9,2.9v30.5
		C181.6,220.7,180.3,222,178.7,222z M151.1,216.2h24.7v-24.7h-24.7V216.2z"/>
	<polygon class="st46" points="164.5,213.6 155.1,204.3 158.9,200.5 164.5,206.1 186.9,183.7 190.6,187.4 	"/>
	<rect x="148.2" y="251.8" class="st40" width="30.5" height="30.5"/>
	<path class="st42" d="M178.7,285.3h-30.5c-1.6,0-2.9-1.3-2.9-2.9v-30.5c0-1.6,1.3-2.9,2.9-2.9h30.5c1.6,0,2.9,1.3,2.9,2.9v30.5
		C181.6,284,180.3,285.3,178.7,285.3z M151.1,279.5h24.7v-24.7h-24.7V279.5z"/>
	<polygon class="st46" points="164.5,276.8 155.1,267.5 158.9,263.7 164.5,269.3 186.9,246.9 190.6,250.7 	"/>
	<g>
		<rect x="208.3" y="134.1" class="st48" width="121.9" height="9.1"/>
		<rect x="208.3" y="157" class="st48" width="121.9" height="9.1"/>
		<rect x="208.3" y="179.8" class="st48" width="121.9" height="9.1"/>
		<rect x="208.3" y="202.7" class="st48" width="66.6" height="9.1"/>
	</g>
	
		<rect x="256.6" y="261.1" transform="matrix(0.7071 -0.7071 0.7071 0.7071 -94.8859 316.9124)" class="st47" width="157.1" height="23.7"/>
	
		<rect x="377.7" y="193.3" transform="matrix(0.7071 -0.7071 0.7071 0.7071 -44.7258 337.6802)" class="st48" width="15.1" height="59.1"/>
</g>
</svg>
