<?xml version="1.0" encoding="utf-8"?>
<!-- Generator: Adobe Illustrator 21.0.2, SVG Export Plug-In . SVG Version: 6.00 Build 0)  -->
<svg version="1.1" id="Layer_1" xmlns="http://www.w3.org/2000/svg" xmlns:xlink="http://www.w3.org/1999/xlink" x="0px" y="0px"
	 viewBox="0 0 512 512" style="enable-background:new 0 0 512 512;" xml:space="preserve">
<style type="text/css">
	.st0{opacity:0.2;enable-background:new    ;}
	.st1{fill:#FFFFFF;}
</style>
<g class="st0">
	<g>
		<path class="st1" d="M196.2,414.3c-3.1-3.1-8.2-3.1-11.3,0l-45.6,45.6c-3.1,3.1-3.1,8.2,0,11.3c1.6,1.6,3.6,2.3,5.7,2.3
			s4.1-0.8,5.7-2.3l45.6-45.6C199.4,422.5,199.4,417.5,196.2,414.3z"/>
	</g>
</g>
<g>
	<g>
		<path class="st1" d="M504.3,182.8c-9.5-9.5-25-9.5-34.5,0l-79.5,79.5c-1,1-2.7,1-3.8,0c-0.7-0.7-0.8-1.5-0.8-1.9s0.1-1.2,0.8-1.9
			l79.5-79.5c9.5-9.5,9.5-25,0-34.5c-4.6-4.6-10.7-7.1-17.2-7.1s-12.6,2.5-17.2,7.1L352.1,224c-0.7,0.7-1.5,0.8-1.9,0.8
			c-0.4,0-1.2-0.1-1.9-0.8c-0.7-0.7-0.8-1.5-0.8-1.9s0.1-1.2,0.8-1.9l79.5-79.5c9.5-9.5,9.5-25,0-34.5c-6.1-6.1-14.8-8.3-22.7-6.5
			c0.1-1.4,0.1-2.8,0.1-4.2c0-52.7-42.9-95.5-95.5-95.5c-19.3,0-37.6,5.6-53.4,16.3C240.5,5.6,222.2,0,202.9,0
			c-19.3,0-37.6,5.6-53.4,16.3C133.7,5.6,115.3,0,96.1,0C43.4,0,0.6,42.8,0.6,95.5c0,43.3,29,80,68.6,91.7v219.3
			c0,12,9.7,21.7,21.7,21.7h45.2l-28,28c-12.8,12.8-12.8,33.5,0,46.3c6.4,6.4,14.8,9.6,23.2,9.6c8.4,0,16.8-3.2,23.2-9.6l74.3-74.3
			h86.2c12,0,21.7-9.7,21.7-21.7v-57.8c5,2.1,10.5,3.3,16.1,3.3c11,0,21.2-4.3,29-12l122.6-122.6
			C513.8,207.7,513.8,192.3,504.3,182.8z M83,173.9c-1.3-0.2-2.6-0.5-3.9-0.8c-35.7-7.8-62.5-39.7-62.5-77.7
			C16.6,51.7,52.2,16,96.1,16c17.7,0,34.5,5.7,48.5,16.5c2.9,2.2,6.9,2.2,9.8,0c14-10.8,30.8-16.5,48.5-16.5
			c17.7,0,34.5,5.7,48.5,16.5c2.9,2.2,6.9,2.2,9.8,0C275.2,21.7,292,16,309.7,16c43.8,0,79.5,35.7,79.5,79.5
			c0,5.5-0.6,11.1-1.8,16.6l-61.2,61.2c-5.5,1.2-11,1.8-16.6,1.8c-17.7,0-34.5-5.7-48.5-16.5c-2.9-2.2-6.9-2.2-9.8,0
			c-14,10.8-30.8,16.5-48.5,16.5c-17.7,0-34.5-5.7-48.5-16.5c-2.9-2.2-6.9-2.2-9.8,0c-14,10.8-30.8,16.5-48.5,16.5
			c-1.4,0-2.8,0-4.3-0.1c-0.1,0-0.2,0-0.3,0c-1.3-0.1-2.7-0.2-4-0.3c0,0-0.1,0-0.1,0c-1.4-0.2-2.8-0.3-4.1-0.6
			C83.2,174,83.1,174,83,173.9z M124.8,412.1H90.9c-3.1,0-5.7-2.5-5.7-5.7v-35.2h39.6V412.1z M85.2,355.2V190.4
			c1.8,0.2,3.5,0.4,5.3,0.5c0.1,0,0.1,0,0.2,0c0.8,0,1.6,0.1,2.3,0.1c0.1,0,0.3,0,0.4,0c0.9,0,1.8,0,2.6,0
			c19.3,0,37.6-5.6,53.4-16.3c15.8,10.7,34.1,16.3,53.4,16.3c19.3,0,37.6-5.6,53.4-16.3c15.5,10.5,33.4,16.1,52.3,16.3l-37.9,37.9
			c-7.7,7.7-12,18-12,29c0,11,4.3,21.2,12,29c1.8,1.8,1.8,4.8,0,6.7L209,355.2L85.2,355.2L85.2,355.2z M193,371.2l-40.9,40.9h-11.3
			v-40.9H193z M265,412.1h-20.3l20.3-20.3V412.1z M320.6,406.5c0,3.1-2.5,5.7-5.7,5.7H281v-36.3l4.6-4.6h34.9V406.5z M320.6,355.2
			h-18.9l15.3-15.3c1-1,2.3-1.4,3.6-1.4L320.6,355.2L320.6,355.2z M493,205.9L370.3,328.6c-9.7,9.7-25.6,9.7-35.3,0
			c-8.1-8.1-21.2-8.1-29.3,0L143.1,491.1c-6.5,6.5-17.2,6.5-23.7,0c-6.5-6.5-6.5-17.2,0-23.7L282,304.9c8.1-8.1,8.1-21.2,0-29.3
			c-9.7-9.7-9.7-25.6,0-35.3l122.6-122.6c1.6-1.6,3.8-2.5,5.9-2.5c2.1,0,4.3,0.8,5.9,2.5c3.3,3.3,3.3,8.6,0,11.8L337,208.9
			c-3.5,3.5-5.5,8.2-5.5,13.2c0,5,1.9,9.7,5.5,13.2c3.5,3.5,8.2,5.5,13.2,5.5c5,0,9.7-1.9,13.2-5.5l79.5-79.5
			c1.6-1.6,3.7-2.5,5.9-2.5c2.2,0,4.3,0.9,5.9,2.5c3.3,3.3,3.3,8.6,0,11.9l-79.5,79.5c-3.5,3.5-5.5,8.2-5.5,13.2
			c0,5,1.9,9.7,5.5,13.2c7.3,7.3,19.1,7.3,26.4,0l79.5-79.5c3.3-3.3,8.6-3.3,11.9,0C496.3,197.3,496.3,202.7,493,205.9z"/>
	</g>
</g>
</svg>
